<?xml version="1.0" standalone="no"?>
<!DOCTYPE svg PUBLIC "-//W3C//DTD SVG 20010904//EN"
 "http://www.w3.org/TR/2001/REC-SVG-20010904/DTD/svg10.dtd">
<svg version="1.0" xmlns="http://www.w3.org/2000/svg"
 width="16.000000pt" height="16.000000pt" viewBox="0 0 16.000000 16.000000"
 preserveAspectRatio="xMidYMid meet">
<metadata>
Created by potrace 1.11, written by Peter Selinger 2001-2013
</metadata>
<g transform="translate(0.000000,16.000000) scale(0.005333,-0.005333)"
fill="#000000" stroke="none">
<path d="M90 2020 l0 -120 650 0 650 0 0 120 0 120 -650 0 -650 0 0 -120z"/>
<path d="M90 1500 l0 -120 1410 0 1410 0 0 120 0 120 -1410 0 -1410 0 0 -120z"/>
<path d="M90 980 l0 -120 1105 0 1105 0 0 120 0 120 -1105 0 -1105 0 0 -120z"/>
</g>
</svg>
